{"title":"Desi Bhabi Poornima 1st April {}-=MTR-=","uid":7152322,"size":4201621,"categoryP":"porn","categoryS":"other","magnet":"?xt=urn:btih:1d375bbdf796b40926dbe0413c1d8ca044b5b573&amp;dn=Desi+Bhabi+Poornima+1st+April+%7B%7D-%3DMTR-%3D&amp;tr=udp%3A%2F%2Ftracker.openbittorrent.com%3A80&amp;tr=udp%3A%2F%2Fopen.demonii.com%3A1337&amp;tr=udp%3A%2F%2Ftracker.coppersurfer.tk%3A6969&amp;tr=udp%3A%2F%2Fexodus.desync.com%3A6969","seeders":0,"leechers":1,"uploader":"Devdeep","files":2,"time":1333348206,"description":"Info............\n\nFormat                           : MPEG-4\nFormat profile                   : Base Media\nCodec ID                         : isom\nFile size                        : 3.93 MiB\nDuration                         : 3mn 8s\nOverall bit rate                 : 175 Kbps\n\nVideo\nID                               : 1\nFormat                           : MPEG-4 Visual\nFormat profile                   : Simple@L3\nFormat settings, BVOP            : No\nFormat settings, QPel            : No\nFormat settings, GMC             : No warppoints\nFormat settings, Matrix          : Default (H.263)\nCodec ID                         : 20\nDuration                         : 3mn 7s\nBit rate mode                    : Variable\nBit rate                         : 96.8 Kbps\nWidth                            : 176 pixels\nHeight                           : 144 pixels\nDisplay aspect ratio             : 4:3\nOriginal display aspect ratio    : 1.222\nFrame rate mode                  : Constant\nFrame rate                       : 5.000 fps\nColor space                      : YUV\nChroma subsampling               : 4:2:0\nBit depth                        : 8 bits\nScan type                        : Progressive\nCompression mode                 : Lossy\nBits/(Pixel*Frame)               : 0.764\nStream size                      : 2.16 MiB (55%)\n\nAudio\nID                               : 2\nFormat                           : AAC\nFormat/Info                      : Advanced Audio Codec\nFormat profile                   : LC\nCodec ID                         : 40\nDuration                         : 3mn 8s\nBit rate mode                    : Variable\nBit rate                         : 75.9 Kbps\nChannel(s)                       : 1 channel\nChannel positions                : Front: C\nSampling rate                    : 44.1 KHz\nCompression mode                 : Lossy\nStream size                      : 1.70 MiB (43%)\n\n\n\n\n\nScreens...\n &lt;a href=&quot;\nhttp://picturestack.com/337/509/duzpoornimazz7.jpg&quot; rel=&quot;nofollow&quot; target=&quot;_NEW&quot;&gt;\nhttp://picturestack.com/337/509/duzpoornimazz7.jpg&lt;/a&gt;","torrent":{"xt":"urn:btih:1d375bbdf796b40926dbe0413c1d8ca044b5b573","amp;dn":"Desi+Bhabi+Poornima+1st+April+%7B%7D-%3DMTR-%3D","amp;tr":["udp%3A%2F%2Ftracker.openbittorrent.com%3A80","udp%3A%2F%2Fopen.demonii.com%3A1337","udp%3A%2F%2Ftracker.coppersurfer.tk%3A6969","udp%3A%2F%2Fexodus.desync.com%3A6969"],"infoHash":"1d375bbdf796b40926dbe0413c1d8ca044b5b573","infoHashBuffer":{"type":"Buffer","data":[29,55,91,189,247,150,180,9,38,219,224,65,60,29,140,160,68,181,181,115]},"announce":[],"urlList":[]}}